<svg width="1094" height="330" viewBox="0 0 1094 330" fill="none" xmlns="http://www.w3.org/2000/svg">
<path d="M148.5 276.5L56 247L74.5 145.5L171 176.5C171 177.167 174.1 179.6 186.5 184C190.1 184 198.333 178 202 175L276.5 139L244.5 240.5L179.5 270.5C179.167 271.333 175.6 274.2 164 279C158 279.8 151.167 277.667 148.5 276.5Z" fill="black" stroke="black"/>
<path d="M186.999 167C184.199 171.4 185.832 178.167 186.999 181C188.5 177 192 176 195.5 174.5L271 137.5L258.5 131.5C257.833 131.833 247.4 137 186.999 167Z" fill="black" stroke="black"/>
<path d="M178.508 164.349C181.888 168.321 181.203 175.248 180.438 178.215C178.4 174.461 174.796 173.953 171.122 172.95L78.5 143.5L88.4983 135.002C89.2045 135.24 114.548 142.964 178.508 164.349Z" fill="black" stroke="black"/>
<path d="M146.5 76C138 71.9966 131.333 75.9999 130 75.9999M131 73.5C131 85.9264 120.926 96 108.5 96C96.0736 96 86 85.9264 86 73.5C86 61.0736 96.0736 51 108.5 51C120.926 51 131 61.0736 131 73.5ZM191 73.5C191 85.9264 180.926 96 168.5 96C156.074 96 146 85.9264 146 73.5C146 61.0736 156.074 51 168.5 51C180.926 51 191 61.0736 191 73.5Z" stroke="black" stroke-width="5"/>
<path d="M170.789 0.503491C171.234 0.393245 171.989 0.279948 172.686 0.66853L172.825 0.753491L172.935 0.831616C173.469 1.2398 173.75 1.85901 173.911 2.27595C174.112 2.79976 174.274 3.43692 174.412 4.13142C174.688 5.52856 174.901 7.36199 175.067 9.44392C175.399 13.62 175.555 18.9735 175.618 24.233C175.68 29.4992 175.649 34.7005 175.602 38.5826C175.578 40.5238 175.551 42.1373 175.53 43.2652C175.519 43.8288 175.51 44.2718 175.503 44.5738C175.503 44.6045 175.501 44.634 175.5 44.6617C175.553 44.7661 175.617 44.893 175.691 45.0416C175.886 45.4355 176.15 45.982 176.469 46.6529C173.943 45.9038 171.267 45.4996 168.497 45.4996C154.628 45.4997 143.115 55.5845 140.888 68.8209C139.172 68.6608 137.569 68.7063 136.114 68.8677C133.906 55.6085 122.383 45.4998 108.497 45.4996C93.0337 45.4997 80.4976 58.0358 80.4975 73.4996C80.4975 88.9634 93.0337 101.499 108.497 101.5C121.697 101.499 132.761 92.3654 135.719 80.0738C135.97 80.0169 136.23 79.9637 136.497 79.9176C137.852 79.6833 139.453 79.6036 141.254 79.9879C144.181 92.3229 155.267 101.499 168.497 101.5C173.813 101.499 178.782 100.018 183.015 97.4459C180.037 104.44 176.634 108.373 170.765 113.016L173.332 120.29L184.452 135.275L212.579 147.117L215.873 148.504L212.576 149.883L185.076 161.383L184.551 161.603L184.013 161.42L140.009 146.42L139.914 146.386L139.823 146.341C138.543 145.702 134.544 144.356 129.065 142.659C123.657 140.983 116.969 139.013 110.452 137.128C103.936 135.245 97.5955 133.448 92.8842 132.124C90.5289 131.461 88.5802 130.917 87.2211 130.538C86.6378 130.375 86.1628 130.242 85.811 130.144L69.8569 142.347L61.9643 181.794C59.8852 192.272 56.8641 209.526 54.31 224.231C53.0339 231.578 51.8745 238.289 51.0092 243.185C50.5767 245.632 50.2166 247.634 49.9516 249.038C49.8806 249.414 49.8151 249.75 49.7573 250.043L59.5092 253.589H59.5082L102.471 268.577H102.473C102.475 268.577 102.478 268.579 102.481 268.58C102.488 268.582 102.5 268.586 102.514 268.59C102.543 268.6 102.587 268.614 102.644 268.633C102.758 268.671 102.929 268.729 103.15 268.802C103.593 268.95 104.243 269.166 105.07 269.441C106.724 269.991 109.088 270.778 111.924 271.723C117.596 273.614 125.159 276.139 132.722 278.677C140.284 281.215 147.85 283.766 153.526 285.709C156.363 286.679 158.733 287.499 160.396 288.09C161.225 288.385 161.889 288.627 162.349 288.802C162.363 288.808 162.378 288.814 162.392 288.819C162.48 288.767 162.578 288.711 162.683 288.65C163.295 288.292 164.182 287.776 165.282 287.139C167.481 285.866 170.534 284.112 173.947 282.192C180.759 278.359 189.056 273.833 194.866 271.139C200.56 268.498 206.386 265.276 212.965 261.683C219.531 258.098 226.813 254.162 235.354 250.142C249.738 243.372 265.289 241.096 280.105 247.627C286.43 250.415 292.199 255.273 296.64 260.376C301.064 265.459 304.309 270.946 305.444 275.105C307.05 280.995 306.408 291.124 301.816 299.708C298.357 306.173 294.552 311.173 286.741 312.479C283.094 313.089 279.974 312.693 277.073 311.508C274.208 310.339 271.625 308.427 269.003 306.127C265.1 302.701 264.904 298.011 264.645 294.17C264.372 290.129 264.039 286.942 261.084 284.693C257.624 282.059 253.547 282.309 249.623 283.696C245.685 285.088 242.253 287.504 240.312 288.759C238.234 290.104 235.339 292.234 231.764 294.859C228.208 297.47 224.017 300.54 219.401 303.718C210.179 310.068 199.196 316.89 188.055 321.39C171.839 327.94 151.471 329.429 134.078 329.065C116.659 328.701 102.035 326.472 97.1948 325.468C73.5165 320.557 58.8371 316.339 40.4994 300.124C26.7394 287.956 18.1191 278.744 10.1274 261.119C0.850918 240.66 -0.0127399 217.516 1.50335 204.329C2.98668 191.427 3.82594 175.683 10.0834 158.487C14.6965 145.81 17.1825 140.931 25.7328 127.686C29.9837 121.101 36.386 111.224 41.7758 102.991C44.4702 98.8752 46.9146 95.1663 48.7114 92.4849C49.6087 91.1458 50.3497 90.0553 50.8813 89.2965C51.1454 88.9195 51.3678 88.6105 51.5356 88.3902C51.614 88.2872 51.6963 88.181 51.7748 88.0914C51.8086 87.9978 51.8534 87.8702 51.9067 87.7047C52.0706 87.1952 52.2926 86.4388 52.561 85.4791C53.0964 83.5644 53.7999 80.904 54.5658 77.9381C56.0823 72.0666 57.8352 65.0284 59.0014 60.2828C59.0056 60.1955 59.012 60.0707 59.0199 59.9127C59.0367 59.5786 59.0622 59.0932 59.0951 58.4888C59.1611 57.2797 59.2591 55.5901 59.3871 53.6695C59.6427 49.8365 60.0196 45.0473 60.5053 41.3082C61.4824 33.7862 62.4909 24.9661 63.8813 17.6744C64.5765 14.0284 65.379 10.697 66.3451 8.06208C66.8285 6.74403 67.3682 5.5587 67.9799 4.58064C68.5845 3.61402 69.3157 2.75879 70.2211 2.21541C71.4939 1.45176 73.0436 1.80039 74.2612 2.27302C75.5844 2.78678 77.0836 3.67226 78.644 4.75251C81.7799 6.92356 85.436 10.0759 88.8881 13.2769C92.3503 16.4873 95.6505 19.7881 98.0824 22.2828C99.299 23.5307 100.301 24.5791 100.998 25.316C101.257 25.5887 101.473 25.8197 101.644 26.0015H140.382C140.58 25.8088 140.841 25.5548 141.158 25.2476C141.932 24.4972 143.041 23.4276 144.38 22.151C147.058 19.5986 150.663 16.2129 154.366 12.8873C158.061 9.56776 161.881 6.28268 164.981 3.94587C166.523 2.78324 167.938 1.81629 169.095 1.19978C169.667 0.895073 170.247 0.638105 170.789 0.503491ZM145.736 97.9771C148.375 94.0533 130.077 93.9637 132.164 97.9771C134.25 101.99 138.95 105.001 138.95 105.001C138.95 105.001 143.261 101.656 145.736 97.9771Z" fill="black"/>
<path d="M328.6 243.4C322.733 243.4 317.533 242.733 313 241.4C308.6 240.067 305.067 237.333 302.4 233.2C299.867 228.933 298.6 222.533 298.6 214V147.4C298.6 139.933 299.867 134.333 302.4 130.6C305.067 126.867 308.667 124.4 313.2 123.2C317.867 121.867 323.067 121.2 328.8 121.2C334.667 121.2 339.8 121.867 344.2 123.2C348.6 124.533 352.067 127.067 354.6 130.8C357.133 134.533 358.4 140.067 358.4 147.4V168.2H345.8V147.2C345.8 142 345.067 138.133 343.6 135.6C342.133 132.933 340.067 131.2 337.4 130.4C334.867 129.6 331.933 129.2 328.6 129.2C325.267 129.2 322.267 129.6 319.6 130.4C317.067 131.2 315.067 132.933 313.6 135.6C312.267 138.133 311.6 142 311.6 147.2V217.4C311.6 222.733 312.267 226.733 313.6 229.4C315.067 231.933 317.067 233.6 319.6 234.4C322.267 235.2 325.267 235.6 328.6 235.6C332.067 235.6 335.067 235.2 337.6 234.4C340.133 233.6 342.133 231.933 343.6 229.4C345.067 226.733 345.8 222.733 345.8 217.4V199.6H358.4V213.8C358.4 222.467 357.133 228.933 354.6 233.2C352.067 237.333 348.6 240.067 344.2 241.4C339.8 242.733 334.6 243.4 328.6 243.4ZM408.083 243.4C402.349 243.4 397.283 242.733 392.883 241.4C388.483 240.067 384.949 237.333 382.283 233.2C379.749 228.933 378.483 222.533 378.483 214V147.4C378.483 139.933 379.749 134.333 382.283 130.6C384.949 126.867 388.549 124.4 393.083 123.2C397.616 121.867 402.749 121.2 408.483 121.2C414.216 121.2 419.283 121.867 423.683 123.2C428.216 124.533 431.749 127.067 434.283 130.8C436.949 134.533 438.283 140.067 438.283 147.4V213.8C438.283 222.467 436.949 228.933 434.283 233.2C431.749 237.333 428.216 240.067 423.683 241.4C419.283 242.733 414.083 243.4 408.083 243.4ZM408.283 235.6C411.749 235.6 414.749 235.2 417.283 234.4C419.949 233.467 422.016 231.733 423.483 229.2C424.949 226.533 425.683 222.6 425.683 217.4V147.4C425.683 142.2 424.949 138.333 423.483 135.8C422.016 133.133 419.949 131.4 417.283 130.6C414.616 129.667 411.616 129.2 408.283 129.2C404.816 129.2 401.749 129.667 399.083 130.6C396.549 131.4 394.549 133.133 393.083 135.8C391.616 138.333 390.883 142.2 390.883 147.4V217.4C390.883 222.6 391.616 226.533 393.083 229.2C394.549 231.733 396.549 233.467 399.083 234.4C401.749 235.2 404.816 235.6 408.283 235.6ZM461.733 241V122.8H476.533L502.133 219L528.333 122.8H542.533V241H531.333V145.4L506.733 241H497.733L473.133 145.4V241H461.733ZM567.788 241V122.8H580.388V241H567.788ZM633.483 243.4C627.616 243.4 622.416 242.733 617.883 241.4C613.483 240.067 609.949 237.333 607.283 233.2C604.749 228.933 603.483 222.533 603.483 214V147.4C603.483 139.933 604.749 134.333 607.283 130.6C609.949 126.867 613.549 124.4 618.083 123.2C622.749 121.867 627.949 121.2 633.683 121.2C639.549 121.2 644.683 121.867 649.083 123.2C653.483 124.533 656.949 127.067 659.483 130.8C662.016 134.533 663.283 140.067 663.283 147.4V168.2H650.683V147.2C650.683 142 649.949 138.133 648.483 135.6C647.016 132.933 644.949 131.2 642.283 130.4C639.749 129.6 636.816 129.2 633.483 129.2C630.149 129.2 627.149 129.6 624.483 130.4C621.949 131.2 619.949 132.933 618.483 135.6C617.149 138.133 616.483 142 616.483 147.2V217.4C616.483 222.733 617.149 226.733 618.483 229.4C619.949 231.933 621.949 233.6 624.483 234.4C627.149 235.2 630.149 235.6 633.483 235.6C636.949 235.6 639.949 235.2 642.483 234.4C645.016 233.6 647.016 231.933 648.483 229.4C649.949 226.733 650.683 222.733 650.683 217.4V199.6H663.283V213.8C663.283 222.467 662.016 228.933 659.483 233.2C656.949 237.333 653.483 240.067 649.083 241.4C644.683 242.733 639.483 243.4 633.483 243.4ZM722.28 241V122.8H759.48C766.146 122.8 771.546 124.4 775.68 127.6C779.813 130.667 781.88 135.6 781.88 142.4V161.6C781.88 168.4 779.813 173.667 775.68 177.4C771.68 181.133 766.213 183.133 759.28 183.4V183.2C763.546 183.467 766.746 185 768.88 187.8C771.013 190.467 772.88 194.667 774.48 200.4L786.68 241H772.68L761.88 201.2C760.813 197.467 759.413 194.133 757.68 191.2C756.08 188.133 753.413 186.6 749.68 186.6H735.28V241H722.28ZM735.28 177.6H752.88C759.013 177.6 763.28 176.2 765.68 173.4C768.213 170.467 769.48 166.2 769.48 160.6V144.6C769.48 139.667 768.28 136.067 765.88 133.8C763.613 131.4 760.08 130.2 755.28 130.2H735.28V177.6ZM805.092 241V122.8H856.092V131.8H818.092V174.2H848.492V184.2H818.092V232H856.092V241H805.092ZM873.452 241V122.8H885.852V232H918.852V241H873.452ZM932.827 241V122.8H945.427V241H932.827ZM970.522 241V122.8H1021.52V131.8H983.522V174.2H1013.92V184.2H983.522V232H1021.52V241H970.522ZM1038.88 241V122.8H1089.88V131.8H1051.88V174.2H1082.28V184.2H1051.88V241H1038.88Z" fill="black"/>
</svg>
