<svg width="1094" height="329" viewBox="0 0 1094 329" fill="none" xmlns="http://www.w3.org/2000/svg">
<path d="M147.594 276.102L55.0938 246.602L73 147.5L169.5 178C169.5 178.667 172.6 183.6 185 188C188.6 188 198.406 182.398 201 177L275.594 138.602L243.594 240.102L178.594 270.102C178.26 270.935 174.694 273.802 163.094 278.602C157.094 279.402 150.26 277.268 147.594 276.102Z" fill="black" stroke="black" stroke-width="3"/>
<path d="M187.412 165.538C184.72 170.005 186.518 176.729 187.754 179.533C189.157 175.498 192.631 174.413 196.094 172.828L270.668 133.996L258.025 128.303C257.367 128.652 247.063 134.072 187.412 165.538Z" fill="black" stroke="black" stroke-width="3"/>
<path d="M177.309 163.24C180.737 167.171 180.137 174.106 179.408 177.082C177.325 173.352 173.714 172.888 170.029 171.93L77.0537 143.614L86.9474 134.994C87.6566 135.224 113.092 142.637 177.309 163.24Z" fill="black" stroke="black" stroke-width="3"/>
<path d="M145.594 75.6016C137.094 71.5981 130.427 75.6014 129.094 75.6014M130.094 73.1016C130.094 85.528 120.02 95.6016 107.594 95.6016C95.1673 95.6016 85.0938 85.528 85.0938 73.1016C85.0938 60.6752 95.1673 50.6016 107.594 50.6016C120.02 50.6016 130.094 60.6752 130.094 73.1016ZM190.094 73.1016C190.094 85.528 180.02 95.6016 167.594 95.6016C155.167 95.6016 145.094 85.528 145.094 73.1016C145.094 60.6752 155.167 50.6016 167.594 50.6016C180.02 50.6016 190.094 60.6752 190.094 73.1016Z" stroke="black" stroke-width="5"/>
<path d="M169.883 0.105149C170.328 -0.00511714 171.083 -0.118642 171.78 0.270188L171.918 0.355149L172.029 0.433274C172.563 0.841573 172.844 1.46067 173.004 1.87761C173.206 2.40148 173.368 3.03849 173.505 3.73308C173.782 5.13027 173.995 6.96357 174.161 9.04558C174.493 13.2217 174.649 18.5751 174.711 23.8346C174.774 29.1009 174.743 34.3022 174.696 38.1843C174.672 40.1256 174.645 41.739 174.623 42.8669C174.613 43.4306 174.604 43.8735 174.597 44.1755C174.596 44.2062 174.595 44.2356 174.594 44.2634C174.646 44.3678 174.711 44.4945 174.785 44.6432C175.014 45.107 175.342 45.7807 175.739 46.6218C175.773 46.6935 175.805 46.7673 175.84 46.8415L171.84 45.4616L171.839 45.4596C171.81 45.4022 171.789 45.3586 171.774 45.3298C171.767 45.3155 171.761 45.3045 171.757 45.2975C171.756 45.2941 171.754 45.2913 171.753 45.2897L171.752 45.2887V45.2878L171.579 44.9489L171.587 44.5671V44.5602C171.587 44.5554 171.588 44.5474 171.588 44.5378C171.589 44.5184 171.589 44.4891 171.59 44.4509C171.592 44.3739 171.595 44.2594 171.598 44.11C171.605 43.8106 171.614 43.3701 171.624 42.8093C171.646 41.6872 171.673 40.0807 171.697 38.1471C171.744 34.2791 171.775 29.1044 171.712 23.8708C171.65 18.6302 171.493 13.3574 171.169 9.28386C171.007 7.24145 170.806 5.54341 170.563 4.31609C170.463 3.81241 170.36 3.42138 170.265 3.13347C170.088 3.20515 169.867 3.30736 169.599 3.44988C168.651 3.95479 167.385 4.80881 165.88 5.94304C162.886 8.20018 159.144 11.4154 155.464 14.7204C151.792 18.0193 148.209 21.3827 145.543 23.9235C144.211 25.1933 143.109 26.2572 142.34 27.0026C141.956 27.3753 141.654 27.669 141.45 27.8688C141.348 27.9684 141.27 28.045 141.217 28.0964C141.191 28.122 141.171 28.142 141.158 28.155C141.151 28.161 141.146 28.1655 141.143 28.1686L141.138 28.1735L140.701 28.6032H99.4321L98.9868 28.1227L100.087 27.1032L98.9858 28.1227V28.1218C98.9852 28.1211 98.984 28.1201 98.9829 28.1188C98.98 28.1158 98.975 28.1104 98.9692 28.1042C98.9576 28.0917 98.9405 28.0724 98.9174 28.0475C98.8709 27.9975 98.8006 27.9233 98.7094 27.8259C98.527 27.6308 98.258 27.344 97.9135 26.9801C97.2244 26.2522 96.2337 25.2142 95.0288 23.9782C92.617 21.5042 89.3543 18.243 85.9418 15.0788C82.519 11.9049 78.9874 8.86861 76.0297 6.82097C74.5438 5.79225 73.2697 5.06009 72.269 4.67156C71.1648 4.24288 70.8375 4.40227 70.8588 4.38933C70.5145 4.59597 70.0879 5.0197 69.6166 5.77312C69.1526 6.5151 68.6974 7.49312 68.2563 8.69597C67.3733 11.1041 66.6065 14.2504 65.9223 17.8385C64.5539 25.0156 63.562 33.6956 62.5746 41.2966C62.1016 44.9382 61.7288 49.6499 61.4741 53.4714C61.347 55.3776 61.2495 57.0546 61.184 58.2546C61.1513 58.8542 61.1264 59.3346 61.1098 59.6647C61.1015 59.8297 61.0954 59.9576 61.0913 60.0436C61.0892 60.0865 61.0884 60.1195 61.0873 60.1413C61.0868 60.152 61.0856 60.1604 61.0854 60.1657V60.1735L61.0786 60.319L61.0434 60.4616C59.876 65.2144 58.0992 72.345 56.5639 78.2897C55.7967 81.2605 55.0881 83.9441 54.5444 85.8884C54.2734 86.8575 54.0382 87.6597 53.8559 88.2262C53.7665 88.504 53.68 88.7555 53.601 88.9499C53.5647 89.0393 53.5099 89.1683 53.4379 89.2936C53.4054 89.3502 53.3324 89.472 53.2172 89.5983C53.2034 89.6135 53.1523 89.6688 53.0688 89.7389C53.0534 89.7586 53.0363 89.7826 53.0161 89.8093C52.8852 89.9811 52.6901 90.2504 52.4321 90.6188C51.9188 91.3514 51.1919 92.4215 50.2973 93.7565C48.5098 96.4241 46.0723 100.122 43.3793 104.235C37.9943 112.46 31.5961 122.333 27.3471 128.915C18.8977 142.003 16.5208 146.681 11.9965 159.114C5.89201 175.89 5.0834 191.174 3.57758 204.272C2.10455 217.085 2.96113 239.65 11.9536 259.482C19.7044 276.576 27.9891 285.459 41.5805 297.477C59.335 313.177 73.4019 317.259 96.8979 322.132C101.558 323.099 115.999 325.306 133.235 325.667C150.497 326.028 170.376 324.531 186.025 318.211C196.863 313.833 207.634 307.156 216.793 300.849C221.368 297.7 225.526 294.653 229.082 292.042C232.62 289.444 235.604 287.247 237.776 285.841C239.59 284.668 243.366 282.007 247.717 280.469C252.083 278.926 257.378 278.392 261.996 281.908C266.169 285.085 266.47 289.693 266.732 293.569C267.007 297.643 267.247 300.991 270.077 303.474C272.608 305.696 274.894 307.35 277.3 308.333C279.669 309.3 282.223 309.642 285.339 309.122C291.732 308.053 294.929 304.127 298.264 297.893C302.515 289.948 303.038 280.606 301.644 275.496C300.673 271.937 297.735 266.847 293.47 261.947C289.222 257.066 283.794 252.534 277.988 249.974C264.216 243.904 249.609 245.924 235.726 252.459C227.271 256.438 220.055 260.336 213.497 263.918C206.952 267.491 201.027 270.769 195.222 273.462C189.531 276.101 181.326 280.575 174.512 284.409C171.112 286.322 168.07 288.068 165.878 289.337C164.783 289.971 163.899 290.486 163.29 290.841C162.986 291.019 162.75 291.158 162.59 291.252C162.511 291.298 162.45 291.334 162.41 291.358C162.39 291.37 162.374 291.378 162.364 291.384C162.359 291.387 162.354 291.39 162.352 291.391C162.351 291.392 162.35 291.393 162.349 291.393H162.348L160.087 292.725V291.1C159.68 290.948 159.142 290.753 158.485 290.519C156.839 289.934 154.483 289.118 151.649 288.148C145.982 286.209 138.423 283.661 130.862 281.124C123.301 278.587 115.74 276.062 110.069 274.172C107.233 273.226 104.87 272.44 103.216 271.889C102.39 271.614 101.74 271.398 101.297 271.251C101.076 271.177 100.906 271.121 100.791 271.083C100.734 271.064 100.691 271.049 100.662 271.04C100.647 271.035 100.636 271.03 100.628 271.028C100.625 271.027 100.622 271.027 100.621 271.026L100.619 271.025H100.618L100.607 271.021L100.597 271.017L57.5971 256.017L57.5873 256.014L57.5786 256.011L46.5786 252.011L44.3647 251.206L45.7504 249.819C45.7602 249.775 45.773 249.727 45.7846 249.673C45.8618 249.311 45.967 248.777 46.0981 248.083C46.3596 246.697 46.7167 244.711 47.1489 242.265C48.0131 237.375 49.1717 230.672 50.4487 223.32C53.0009 208.626 56.0281 191.331 58.1157 180.809V180.807L66.1196 140.807L66.2309 140.253L66.6791 139.91L83.6752 126.91L84.268 126.457L84.9877 126.656H84.9897L85.0239 126.666C85.0476 126.672 85.0829 126.682 85.1293 126.695C85.223 126.721 85.3628 126.76 85.5444 126.81C85.9074 126.911 86.4405 127.059 87.1205 127.249C88.4814 127.628 90.4318 128.174 92.7895 128.837C97.5051 130.163 103.853 131.961 110.378 133.847C116.902 135.734 123.611 137.711 129.046 139.395C134.293 141.02 138.514 142.421 140.151 143.209L183.497 157.984L206.254 147.125L182.033 137.495L181.636 137.338L181.382 136.995L169.882 121.498L169.748 121.316L169.672 121.103L167.33 114.466C161.798 118.008 154.175 119.879 147.874 120.885C144.354 121.448 141.171 121.752 138.869 121.916C137.717 121.997 136.783 122.045 136.134 122.071C135.81 122.084 135.556 122.092 135.383 122.096C135.297 122.099 135.231 122.101 135.185 122.102C135.162 122.103 135.144 122.103 135.132 122.103H135.112C135.111 122.101 135.111 122.04 135.087 120.603C135.064 119.173 135.062 119.106 135.062 119.103H135.075C135.084 119.103 135.099 119.103 135.119 119.102C135.159 119.101 135.22 119.101 135.3 119.098C135.461 119.094 135.702 119.086 136.012 119.073C136.634 119.048 137.537 119.003 138.656 118.924C140.895 118.764 143.988 118.469 147.401 117.924C154.304 116.82 162.225 114.737 167.17 110.917C172.638 106.693 175.79 103.368 178.459 97.8376L182.411 96.3268C179.359 103.776 175.926 107.818 169.859 112.618L172.426 119.891L183.537 134.865L210.553 145.606L213.745 146.875L210.645 148.353L184.237 160.955L183.685 161.218L183.107 161.021L139.103 146.021L139.007 145.988L138.916 145.943C137.637 145.303 133.638 143.958 128.159 142.26C122.75 140.585 116.063 138.615 109.545 136.73C103.029 134.846 96.6893 133.05 91.978 131.725C89.6225 131.063 87.674 130.518 86.3149 130.139C85.7314 129.977 85.2567 129.844 84.9047 129.746L68.9506 141.949L61.058 181.395C58.979 191.874 55.9578 209.128 53.4038 223.833C52.1276 231.18 50.9682 237.89 50.103 242.787C49.6705 245.234 49.3103 247.236 49.0454 248.639C48.9743 249.015 48.9089 249.352 48.851 249.644L58.603 253.191H58.602L101.565 268.178H101.567C101.569 268.179 101.571 268.18 101.575 268.181C101.582 268.184 101.593 268.187 101.608 268.192C101.637 268.202 101.681 268.216 101.738 268.235C101.852 268.273 102.022 268.33 102.244 268.404C102.687 268.551 103.337 268.768 104.164 269.043C105.818 269.593 108.182 270.379 111.018 271.325C116.69 273.216 124.253 275.741 131.816 278.279C139.378 280.817 146.944 283.368 152.62 285.31C155.456 286.281 157.827 287.101 159.49 287.692C160.319 287.987 160.983 288.228 161.443 288.404C161.457 288.409 161.472 288.415 161.486 288.421C161.574 288.369 161.672 288.313 161.777 288.252C162.389 287.894 163.276 287.377 164.375 286.741C166.575 285.468 169.627 283.714 173.04 281.794C179.853 277.961 188.15 273.435 193.959 270.741C199.654 268.1 205.479 264.878 212.059 261.285C218.625 257.7 225.907 253.764 234.448 249.744C248.832 242.973 264.383 240.698 279.199 247.228C285.524 250.016 291.292 254.875 295.734 259.977C300.158 265.061 303.403 270.547 304.538 274.707C306.144 280.597 305.502 290.726 300.91 299.309C297.451 305.774 293.646 310.775 285.834 312.081C282.188 312.69 279.068 312.295 276.166 311.11C273.301 309.94 270.719 308.029 268.097 305.728C264.194 302.302 263.998 297.613 263.739 293.771C263.466 289.731 263.133 286.544 260.178 284.295C256.717 281.66 252.641 281.911 248.717 283.298C244.779 284.69 241.346 287.105 239.406 288.361C237.328 289.706 234.433 291.836 230.858 294.461C227.301 297.072 223.111 300.142 218.495 303.32C209.272 309.669 198.29 316.492 187.149 320.992C170.933 327.542 150.565 329.031 133.171 328.667C115.752 328.302 101.129 326.074 96.2885 325.07C72.6101 320.158 57.9309 315.94 39.5932 299.725C25.833 287.558 17.2129 278.346 9.22113 260.72C-0.0554397 240.262 -0.918969 217.118 0.59711 203.93C2.08046 191.028 2.9197 175.285 9.17719 158.089C13.7903 145.411 16.2762 140.532 24.8266 127.288C29.0775 120.703 35.4797 110.825 40.8696 102.592C43.564 98.4768 46.0083 94.7679 47.8051 92.0866C48.7024 90.7475 49.4434 89.657 49.975 88.8981C50.2391 88.5212 50.4616 88.2122 50.6293 87.9919C50.7077 87.8889 50.7901 87.7827 50.8686 87.693C50.9023 87.5995 50.9471 87.472 51.0004 87.3063C51.1644 86.7969 51.3863 86.0405 51.6547 85.0807C52.1901 83.1661 52.8936 80.5057 53.6596 77.5397C55.176 71.6682 56.929 64.6301 58.0952 59.8844C58.0994 59.7972 58.1058 59.6724 58.1137 59.5143C58.1305 59.1803 58.1559 58.6949 58.1889 58.0905C58.2549 56.8814 58.3529 55.1918 58.4809 53.2712C58.7364 49.4381 59.1134 44.649 59.5991 40.9098C60.5761 33.3878 61.5847 24.5678 62.975 17.276C63.6702 13.63 64.4727 10.2987 65.4389 7.66374C65.9222 6.34566 66.4619 5.16038 67.0737 4.1823C67.6783 3.21564 68.4094 2.36046 69.3149 1.81706C70.5878 1.05334 72.1373 1.40198 73.3549 1.87468C74.6782 2.38847 76.1772 3.2738 77.7377 4.35417C80.8738 6.52528 84.5297 9.67746 87.9819 12.8786C91.4442 16.0891 94.7442 19.3897 97.1762 21.8844C98.3929 23.1325 99.3946 24.1808 100.092 24.9176C100.351 25.1905 100.567 25.4213 100.738 25.6032H139.476C139.674 25.4105 139.935 25.1565 140.251 24.8493C141.025 24.0988 142.135 23.0293 143.474 21.7526C146.152 19.2002 149.757 15.8145 153.459 12.4889C157.155 9.16942 160.975 5.88433 164.075 3.54753C165.617 2.38488 167.031 1.41795 168.189 0.801438C168.761 0.496701 169.34 0.239752 169.883 0.105149Z" fill="black"/>
<path d="M137.872 102.085C138.353 101.66 138.996 101.074 139.713 100.371C141.265 98.8485 143.113 96.832 144.438 94.7627C144.444 94.7543 144.447 94.7449 144.451 94.7373C144.421 94.711 144.383 94.679 144.333 94.6445C144.182 94.5398 143.961 94.4215 143.66 94.3018C142.412 93.8049 140.371 93.5065 138.179 93.5C135.992 93.4935 133.898 93.7787 132.56 94.2822C131.924 94.5214 131.627 94.7483 131.519 94.8691C131.523 94.8797 131.527 94.8924 131.534 94.9062C132.608 97.0748 134.393 99.0351 135.976 100.486C136.703 101.153 137.37 101.696 137.872 102.085Z" stroke="black" stroke-width="3"/>
<path d="M327.694 243.002C321.827 243.002 316.627 242.335 312.094 241.002C307.694 239.668 304.16 236.935 301.494 232.802C298.96 228.535 297.694 222.135 297.694 213.602V147.002C297.694 139.535 298.96 133.935 301.494 130.202C304.16 126.468 307.76 124.002 312.294 122.802C316.96 121.468 322.16 120.802 327.894 120.802C333.76 120.802 338.894 121.468 343.294 122.802C347.694 124.135 351.16 126.668 353.694 130.402C356.227 134.135 357.494 139.668 357.494 147.002V167.802H344.894V146.802C344.894 141.602 344.16 137.735 342.694 135.202C341.227 132.535 339.16 130.802 336.494 130.002C333.96 129.202 331.027 128.802 327.694 128.802C324.36 128.802 321.36 129.202 318.694 130.002C316.16 130.802 314.16 132.535 312.694 135.202C311.36 137.735 310.694 141.602 310.694 146.802V217.002C310.694 222.335 311.36 226.335 312.694 229.002C314.16 231.535 316.16 233.202 318.694 234.002C321.36 234.802 324.36 235.202 327.694 235.202C331.16 235.202 334.16 234.802 336.694 234.002C339.227 233.202 341.227 231.535 342.694 229.002C344.16 226.335 344.894 222.335 344.894 217.002V199.202H357.494V213.402C357.494 222.068 356.227 228.535 353.694 232.802C351.16 236.935 347.694 239.668 343.294 241.002C338.894 242.335 333.694 243.002 327.694 243.002ZM407.177 243.002C401.443 243.002 396.377 242.335 391.977 241.002C387.577 239.668 384.043 236.935 381.377 232.802C378.843 228.535 377.577 222.135 377.577 213.602V147.002C377.577 139.535 378.843 133.935 381.377 130.202C384.043 126.468 387.643 124.002 392.177 122.802C396.71 121.468 401.843 120.802 407.577 120.802C413.31 120.802 418.377 121.468 422.777 122.802C427.31 124.135 430.843 126.668 433.377 130.402C436.043 134.135 437.377 139.668 437.377 147.002V213.402C437.377 222.068 436.043 228.535 433.377 232.802C430.843 236.935 427.31 239.668 422.777 241.002C418.377 242.335 413.177 243.002 407.177 243.002ZM407.377 235.202C410.843 235.202 413.843 234.802 416.377 234.002C419.043 233.068 421.11 231.335 422.577 228.802C424.043 226.135 424.777 222.202 424.777 217.002V147.002C424.777 141.802 424.043 137.935 422.577 135.402C421.11 132.735 419.043 131.002 416.377 130.202C413.71 129.268 410.71 128.802 407.377 128.802C403.91 128.802 400.843 129.268 398.177 130.202C395.643 131.002 393.643 132.735 392.177 135.402C390.71 137.935 389.977 141.802 389.977 147.002V217.002C389.977 222.202 390.71 226.135 392.177 228.802C393.643 231.335 395.643 233.068 398.177 234.002C400.843 234.802 403.91 235.202 407.377 235.202ZM460.827 240.602V122.402H475.627L501.227 218.602L527.427 122.402H541.627V240.602H530.427V145.002L505.827 240.602H496.827L472.227 145.002V240.602H460.827ZM566.881 240.602V122.402H579.481V240.602H566.881ZM632.577 243.002C626.71 243.002 621.51 242.335 616.977 241.002C612.577 239.668 609.043 236.935 606.377 232.802C603.843 228.535 602.577 222.135 602.577 213.602V147.002C602.577 139.535 603.843 133.935 606.377 130.202C609.043 126.468 612.643 124.002 617.177 122.802C621.843 121.468 627.043 120.802 632.777 120.802C638.643 120.802 643.777 121.468 648.177 122.802C652.577 124.135 656.043 126.668 658.577 130.402C661.11 134.135 662.377 139.668 662.377 147.002V167.802H649.777V146.802C649.777 141.602 649.043 137.735 647.577 135.202C646.11 132.535 644.043 130.802 641.377 130.002C638.843 129.202 635.91 128.802 632.577 128.802C629.243 128.802 626.243 129.202 623.577 130.002C621.043 130.802 619.043 132.535 617.577 135.202C616.243 137.735 615.577 141.602 615.577 146.802V217.002C615.577 222.335 616.243 226.335 617.577 229.002C619.043 231.535 621.043 233.202 623.577 234.002C626.243 234.802 629.243 235.202 632.577 235.202C636.043 235.202 639.043 234.802 641.577 234.002C644.11 233.202 646.11 231.535 647.577 229.002C649.043 226.335 649.777 222.335 649.777 217.002V199.202H662.377V213.402C662.377 222.068 661.11 228.535 658.577 232.802C656.043 236.935 652.577 239.668 648.177 241.002C643.777 242.335 638.577 243.002 632.577 243.002ZM721.373 240.602V122.402H758.573C765.24 122.402 770.64 124.002 774.773 127.202C778.907 130.268 780.973 135.202 780.973 142.002V161.202C780.973 168.002 778.907 173.268 774.773 177.002C770.773 180.735 765.307 182.735 758.373 183.002V182.802C762.64 183.068 765.84 184.602 767.973 187.402C770.107 190.068 771.973 194.268 773.573 200.002L785.773 240.602H771.773L760.973 200.802C759.907 197.068 758.507 193.735 756.773 190.802C755.173 187.735 752.507 186.202 748.773 186.202H734.373V240.602H721.373ZM734.373 177.202H751.973C758.107 177.202 762.373 175.802 764.773 173.002C767.307 170.068 768.573 165.802 768.573 160.202V144.202C768.573 139.268 767.373 135.668 764.973 133.402C762.707 131.002 759.173 129.802 754.373 129.802H734.373V177.202ZM804.186 240.602V122.402H855.186V131.402H817.186V173.802H847.586V183.802H817.186V231.602H855.186V240.602H804.186ZM872.545 240.602V122.402H884.945V231.602H917.945V240.602H872.545ZM931.92 240.602V122.402H944.52V240.602H931.92ZM969.616 240.602V122.402H1020.62V131.402H982.616V173.802H1013.02V183.802H982.616V231.602H1020.62V240.602H969.616ZM1037.98 240.602V122.402H1088.98V131.402H1050.98V173.802H1081.38V183.802H1050.98V240.602H1037.98Z" fill="black"/>
</svg>
