<svg width="1094" height="329" viewBox="0 0 1094 329" fill="none" xmlns="http://www.w3.org/2000/svg">
<path d="M147.594 276.102L55.0938 246.602L73.5938 145.102L170.094 176.102C170.094 176.768 173.194 179.202 185.594 183.602C189.194 183.602 197.427 177.602 201.094 174.602L275.594 138.602L243.594 240.102L178.594 270.102C178.26 270.935 174.694 273.802 163.094 278.602C157.094 279.402 150.26 277.268 147.594 276.102Z" fill="white" stroke="white"/>
<path d="M186.093 166.602C183.293 171.002 184.926 177.768 186.093 180.602C187.594 176.602 191.094 175.602 194.594 174.102L270.094 137.102L257.594 131.102C256.927 131.435 246.494 136.602 186.093 166.602Z" fill="white" stroke="white"/>
<path d="M177.602 163.951C180.982 167.923 180.297 174.85 179.532 177.817C177.494 174.062 173.889 173.554 170.216 172.551L77.5937 143.102L87.592 134.603C88.2983 134.842 113.641 142.565 177.602 163.951Z" fill="white" stroke="white"/>
<path d="M145.594 75.6016C137.094 71.5981 130.427 75.6014 129.094 75.6014M130.094 73.1016C130.094 85.528 120.02 95.6016 107.594 95.6016C95.1673 95.6016 85.0938 85.528 85.0938 73.1016C85.0938 60.6752 95.1673 50.6016 107.594 50.6016C120.02 50.6016 130.094 60.6752 130.094 73.1016ZM190.094 73.1016C190.094 85.528 180.02 95.6016 167.594 95.6016C155.167 95.6016 145.094 85.528 145.094 73.1016C145.094 60.6752 155.167 50.6016 167.594 50.6016C180.02 50.6016 190.094 60.6752 190.094 73.1016Z" stroke="white" stroke-width="5"/>
<path fill-rule="evenodd" clip-rule="evenodd" d="M169.883 0.105054C170.328 -0.00519287 171.083 -0.11849 171.78 0.270093L171.918 0.355054L172.029 0.433179C172.563 0.841366 172.844 1.46058 173.004 1.87751C173.205 2.40132 173.368 3.03848 173.505 3.73298C173.782 5.13012 173.995 6.96355 174.161 9.04548C174.493 13.2216 174.649 18.5751 174.711 23.8345C174.774 29.1007 174.743 34.3021 174.696 38.1842C174.672 40.1254 174.645 41.7389 174.623 42.8668C174.613 43.4304 174.604 43.8734 174.597 44.1754C174.596 44.206 174.595 44.2355 174.594 44.2633C174.646 44.3676 174.711 44.4945 174.785 44.6431C174.979 45.0371 175.244 45.5836 175.563 46.2545C173.036 45.5054 170.361 45.1012 167.591 45.1011C153.722 45.1013 142.209 55.186 139.982 68.4224C138.266 68.2623 136.662 68.3079 135.207 68.4693C133 55.21 121.477 45.1014 107.591 45.1011C92.1275 45.1013 79.5914 57.6374 79.5912 73.1012C79.5913 88.565 92.1274 101.101 107.591 101.101C120.791 101.101 131.855 91.967 134.813 79.6754C135.064 79.6185 135.323 79.5652 135.59 79.5191C136.946 79.2849 138.546 79.2051 140.348 79.5894C143.275 91.9245 154.361 101.101 167.591 101.101C172.906 101.101 177.876 99.6194 182.109 97.0474C179.13 104.041 175.728 107.975 169.859 112.618L172.426 119.891L183.545 134.877L211.672 146.718L214.967 148.106L211.669 149.485L184.169 160.985L183.645 161.205L183.107 161.021L139.103 146.021L139.007 145.988L138.916 145.943C137.637 145.303 133.638 143.958 128.159 142.26C122.75 140.585 116.063 138.614 109.545 136.73C103.029 134.846 96.6892 133.05 91.978 131.725C89.6226 131.063 87.6739 130.518 86.3149 130.139C85.7316 129.977 85.2566 129.844 84.9047 129.746L68.9506 141.949L61.058 181.395C58.979 191.874 55.9578 209.128 53.4037 223.833C52.1276 231.18 50.9682 237.89 50.103 242.787C49.6705 245.234 49.3103 247.236 49.0453 248.639C48.9743 249.015 48.9089 249.352 48.851 249.644L58.603 253.191H58.602L101.565 268.178H101.567C101.569 268.179 101.571 268.18 101.575 268.181C101.582 268.184 101.593 268.187 101.608 268.192C101.637 268.202 101.681 268.216 101.738 268.235C101.852 268.273 102.022 268.33 102.244 268.404C102.687 268.551 103.337 268.767 104.164 269.043C105.818 269.593 108.182 270.379 111.018 271.325C116.69 273.216 124.253 275.741 131.816 278.279C139.378 280.816 146.944 283.368 152.62 285.31C155.456 286.281 157.827 287.101 159.49 287.692C160.319 287.987 160.983 288.228 161.443 288.404C161.457 288.409 161.472 288.415 161.486 288.42C161.574 288.369 161.672 288.313 161.777 288.252C162.389 287.894 163.276 287.377 164.375 286.741C166.575 285.468 169.627 283.714 173.04 281.794C179.853 277.961 188.15 273.435 193.959 270.741C199.654 268.1 205.479 264.878 212.059 261.285C218.625 257.699 225.907 253.764 234.448 249.744C248.832 242.973 264.383 240.698 279.199 247.228C285.524 250.016 291.292 254.875 295.734 259.977C300.158 265.06 303.403 270.547 304.538 274.707C306.144 280.597 305.502 290.726 300.91 299.309C297.451 305.774 293.646 310.775 285.834 312.081C282.188 312.69 279.068 312.295 276.166 311.11C273.302 309.94 270.718 308.029 268.097 305.728C264.194 302.302 263.998 297.613 263.739 293.771C263.466 289.731 263.132 286.544 260.178 284.294C256.717 281.66 252.641 281.911 248.717 283.297C244.779 284.69 241.346 287.105 239.406 288.361C237.328 289.706 234.433 291.836 230.858 294.461C227.301 297.071 223.111 300.142 218.495 303.32C209.272 309.669 198.29 316.492 187.149 320.992C170.933 327.541 150.565 329.03 133.171 328.667C115.752 328.302 101.129 326.074 96.2885 325.07C72.6103 320.158 57.9309 315.94 39.5932 299.725C25.8331 287.558 17.2129 278.345 9.22112 260.72C-0.0553324 240.262 -0.91899 217.118 0.597097 203.93C2.08043 191.028 2.91969 175.285 9.17718 158.088C13.7902 145.411 16.2762 140.532 24.8266 127.288C29.0775 120.703 35.4797 110.825 40.8696 102.592C43.564 98.4767 46.0083 94.7678 47.8051 92.0865C48.7024 90.7474 49.4434 89.6569 49.975 88.898C50.2391 88.5211 50.4616 88.2121 50.6293 87.9918C50.7077 87.8888 50.7901 87.7826 50.8686 87.6929C50.9023 87.5994 50.9471 87.4718 51.0004 87.3062C51.1644 86.7968 51.3863 86.0404 51.6547 85.0806C52.1901 83.166 52.8936 80.5055 53.6596 77.5396C55.176 71.6681 56.929 64.63 58.0951 59.8843C58.0994 59.7971 58.1058 59.6722 58.1137 59.5142C58.1305 59.1802 58.1559 58.6947 58.1889 58.0904C58.2549 56.8813 58.3529 55.1916 58.4809 53.2711C58.7364 49.438 59.1134 44.6489 59.5991 40.9097C60.5761 33.3877 61.5847 24.5677 62.975 17.276C63.6702 13.63 64.4727 10.2986 65.4389 7.66365C65.9222 6.34559 66.4619 5.16026 67.0737 4.1822C67.6783 3.21558 68.4094 2.36035 69.3149 1.81697C70.5876 1.05332 72.1374 1.40196 73.3549 1.87458C74.6781 2.38834 76.1773 3.27382 77.7377 4.35408C80.8737 6.52512 84.5298 9.67746 87.9819 12.8785C91.4441 16.0889 94.7443 19.3897 97.1762 21.8843C98.3927 23.1322 99.3946 24.1807 100.092 24.9176C100.35 25.1902 100.567 25.4212 100.738 25.6031H139.476C139.674 25.4103 139.935 25.1564 140.251 24.8492C141.025 24.0987 142.135 23.0292 143.474 21.7525C146.152 19.2001 149.757 15.8145 153.459 12.4888C157.155 9.16932 160.975 5.88424 164.075 3.54744C165.617 2.3848 167.031 1.41785 168.189 0.801343C168.761 0.496635 169.34 0.239668 169.883 0.105054ZM144.83 97.5787C147.469 93.6549 129.171 93.5653 131.257 97.5787C133.344 101.592 138.043 104.602 138.043 104.602C138.043 104.602 142.355 101.258 144.83 97.5787Z" fill="white"/>
<path d="M327.694 243.002C321.827 243.002 316.627 242.335 312.094 241.002C307.694 239.668 304.16 236.935 301.494 232.802C298.96 228.535 297.694 222.135 297.694 213.602V147.002C297.694 139.535 298.96 133.935 301.494 130.202C304.16 126.468 307.76 124.002 312.294 122.802C316.96 121.468 322.16 120.802 327.894 120.802C333.76 120.802 338.894 121.468 343.294 122.802C347.694 124.135 351.16 126.668 353.694 130.402C356.227 134.135 357.494 139.668 357.494 147.002V167.802H344.894V146.802C344.894 141.602 344.16 137.735 342.694 135.202C341.227 132.535 339.16 130.802 336.494 130.002C333.96 129.202 331.027 128.802 327.694 128.802C324.36 128.802 321.36 129.202 318.694 130.002C316.16 130.802 314.16 132.535 312.694 135.202C311.36 137.735 310.694 141.602 310.694 146.802V217.002C310.694 222.335 311.36 226.335 312.694 229.002C314.16 231.535 316.16 233.202 318.694 234.002C321.36 234.802 324.36 235.202 327.694 235.202C331.16 235.202 334.16 234.802 336.694 234.002C339.227 233.202 341.227 231.535 342.694 229.002C344.16 226.335 344.894 222.335 344.894 217.002V199.202H357.494V213.402C357.494 222.068 356.227 228.535 353.694 232.802C351.16 236.935 347.694 239.668 343.294 241.002C338.894 242.335 333.694 243.002 327.694 243.002ZM407.177 243.002C401.443 243.002 396.377 242.335 391.977 241.002C387.577 239.668 384.043 236.935 381.377 232.802C378.843 228.535 377.577 222.135 377.577 213.602V147.002C377.577 139.535 378.843 133.935 381.377 130.202C384.043 126.468 387.643 124.002 392.177 122.802C396.71 121.468 401.843 120.802 407.577 120.802C413.31 120.802 418.377 121.468 422.777 122.802C427.31 124.135 430.843 126.668 433.377 130.402C436.043 134.135 437.377 139.668 437.377 147.002V213.402C437.377 222.068 436.043 228.535 433.377 232.802C430.843 236.935 427.31 239.668 422.777 241.002C418.377 242.335 413.177 243.002 407.177 243.002ZM407.377 235.202C410.843 235.202 413.843 234.802 416.377 234.002C419.043 233.068 421.11 231.335 422.577 228.802C424.043 226.135 424.777 222.202 424.777 217.002V147.002C424.777 141.802 424.043 137.935 422.577 135.402C421.11 132.735 419.043 131.002 416.377 130.202C413.71 129.268 410.71 128.802 407.377 128.802C403.91 128.802 400.843 129.268 398.177 130.202C395.643 131.002 393.643 132.735 392.177 135.402C390.71 137.935 389.977 141.802 389.977 147.002V217.002C389.977 222.202 390.71 226.135 392.177 228.802C393.643 231.335 395.643 233.068 398.177 234.002C400.843 234.802 403.91 235.202 407.377 235.202ZM460.827 240.602V122.402H475.627L501.227 218.602L527.427 122.402H541.627V240.602H530.427V145.002L505.827 240.602H496.827L472.227 145.002V240.602H460.827ZM566.881 240.602V122.402H579.481V240.602H566.881ZM632.577 243.002C626.71 243.002 621.51 242.335 616.977 241.002C612.577 239.668 609.043 236.935 606.377 232.802C603.843 228.535 602.577 222.135 602.577 213.602V147.002C602.577 139.535 603.843 133.935 606.377 130.202C609.043 126.468 612.643 124.002 617.177 122.802C621.843 121.468 627.043 120.802 632.777 120.802C638.643 120.802 643.777 121.468 648.177 122.802C652.577 124.135 656.043 126.668 658.577 130.402C661.11 134.135 662.377 139.668 662.377 147.002V167.802H649.777V146.802C649.777 141.602 649.043 137.735 647.577 135.202C646.11 132.535 644.043 130.802 641.377 130.002C638.843 129.202 635.91 128.802 632.577 128.802C629.243 128.802 626.243 129.202 623.577 130.002C621.043 130.802 619.043 132.535 617.577 135.202C616.243 137.735 615.577 141.602 615.577 146.802V217.002C615.577 222.335 616.243 226.335 617.577 229.002C619.043 231.535 621.043 233.202 623.577 234.002C626.243 234.802 629.243 235.202 632.577 235.202C636.043 235.202 639.043 234.802 641.577 234.002C644.11 233.202 646.11 231.535 647.577 229.002C649.043 226.335 649.777 222.335 649.777 217.002V199.202H662.377V213.402C662.377 222.068 661.11 228.535 658.577 232.802C656.043 236.935 652.577 239.668 648.177 241.002C643.777 242.335 638.577 243.002 632.577 243.002ZM721.373 240.602V122.402H758.573C765.24 122.402 770.64 124.002 774.773 127.202C778.907 130.268 780.973 135.202 780.973 142.002V161.202C780.973 168.002 778.907 173.268 774.773 177.002C770.773 180.735 765.307 182.735 758.373 183.002V182.802C762.64 183.068 765.84 184.602 767.973 187.402C770.107 190.068 771.973 194.268 773.573 200.002L785.773 240.602H771.773L760.973 200.802C759.907 197.068 758.507 193.735 756.773 190.802C755.173 187.735 752.507 186.202 748.773 186.202H734.373V240.602H721.373ZM734.373 177.202H751.973C758.107 177.202 762.373 175.802 764.773 173.002C767.307 170.068 768.573 165.802 768.573 160.202V144.202C768.573 139.268 767.373 135.668 764.973 133.402C762.707 131.002 759.173 129.802 754.373 129.802H734.373V177.202ZM804.186 240.602V122.402H855.186V131.402H817.186V173.802H847.586V183.802H817.186V231.602H855.186V240.602H804.186ZM872.545 240.602V122.402H884.945V231.602H917.945V240.602H872.545ZM931.92 240.602V122.402H944.52V240.602H931.92ZM969.616 240.602V122.402H1020.62V131.402H982.616V173.802H1013.02V183.802H982.616V231.602H1020.62V240.602H969.616ZM1037.98 240.602V122.402H1088.98V131.402H1050.98V173.802H1081.38V183.802H1050.98V240.602H1037.98Z" fill="white"/>
</svg>
